<?xml version="1.0" encoding="UTF-8"?>
<svg id="Layer_1" xmlns="http://www.w3.org/2000/svg" version="1.1" viewBox="0 0 509.1 81.7">
  <!-- Generator: Adobe Illustrator 29.4.0, SVG Export Plug-In . SVG Version: 2.1.0 Build 152)  -->
  <defs>
    <style>
      .st0 {
        fill: #fff;
      }
    </style>
  </defs>
  <path class="st0" d="M166,75.2c-1.7,0-3.1-1.4-3.1-3.1V8.8c0-1.7,1.4-3.1,3.1-3.1s3.1,1.4,3.1,3.1v63.3c0,1.7-1.4,3.1-3.1,3.1Z"/>
  <path class="st0" d="M197.3,9.6h-64.7c-1.7,0-3.1-1.4-3.1-3.1s1.4-3.1,3.1-3.1h64.7c1.7,0,3.1,1.4,3.1,3.1s-1.4,3.1-3.1,3.1Z"/>
  <path class="st0" d="M268.2,75.7c-1.2,0-2.3-.7-2.8-1.8l-27.2-60.2-26.8,59.9c-.7,1.6-2.5,2.2-4.1,1.6-1.5-.7-2.2-2.5-1.5-4.1L235.4,5c.5-1.1,1.6-1.8,2.8-1.8,1.2,0,2.3.7,2.8,1.8l30.1,66.4c.7,1.5,0,3.4-1.5,4.1-.4.2-.8.3-1.3.3h0Z"/>
  <path class="st0" d="M503.4,75.7c-1.2,0-2.3-.7-2.8-1.8l-27.2-60.2-26.8,59.9c-.7,1.6-2.5,2.2-4,1.6-1.5-.7-2.2-2.5-1.5-4.1l29.5-66.2c.5-1.1,1.6-1.8,2.8-1.8,1.2,0,2.3.7,2.8,1.8l30,66.4c.7,1.5,0,3.4-1.5,4.1-.4.2-.8.3-1.3.3h0Z"/>
  <path class="st0" d="M397.6,75.7c-1.2,0-2.3-.7-2.8-1.8l-30.1-66.4c-.7-1.5,0-3.4,1.5-4.1,1.5-.7,3.4,0,4.1,1.5l27.2,60.2,26.8-60c.7-1.6,2.5-2.2,4-1.6,1.6.7,2.2,2.5,1.6,4.1l-29.5,66.2c-.5,1.1-1.6,1.8-2.8,1.8h0Z"/>
  <path class="st0" d="M341.3,75.7c-.8,0-1.5-.3-2.1-.8l-37.7-31.1c-.9-.9-1.2-2.2-.8-3.4.5-1.2,1.6-1.9,2.9-1.9h21.9c10.9,0,12.8-4.5,12.8-14.5s-5.5-14.6-12.8-14.6h-28.9v63.3c0,1.7-1.4,3.1-3.1,3.1s-3.1-1.4-3.1-3.1V6.3c0-1.7,1.4-3.1,3.1-3.1h32c8.8,0,18.9,2.4,18.9,20.8s-2.2,20.6-18.9,20.6h-14l31.9,25.8c1.2,1.1,1.3,3.1.2,4.3-.6.6-1.4,1-2.2,1h0Z"/>
  <path class="st0" d="M78.8,1.9l-24.5,35c-.8,1.4-.8,3,0,4.4l15.2,25.6c.6,1.1-.6,2.4-1.7,1.7l-25.6-15.2c-1.4-.8-3-.8-4.4,0L1.9,78.8c-1.1.6-2.3-.6-1.7-1.7l25.4-35.8c.8-1.3.8-3,0-4.4L10.4,11.2c-.6-1.1.6-2.4,1.7-1.7l25.6,15.2c1.3.8,3,.8,4.4,0L77.1.2c1.1-.7,2.4.6,1.7,1.7Z"/>
</svg>